<?xml version="1.0" standalone="no"?>
<!DOCTYPE svg PUBLIC "-//W3C//DTD SVG 20010904//EN"
 "http://www.w3.org/TR/2001/REC-SVG-20010904/DTD/svg10.dtd">
<svg version="1.0" xmlns="http://www.w3.org/2000/svg"
 width="300.000000pt" height="300.000000pt" viewBox="0 0 300.000000 300.000000"
 preserveAspectRatio="xMidYMid meet">
<metadata>
Created by potrace 1.14, written by Peter Selinger 2001-2017
</metadata>
<g transform="translate(0.000000,300.000000) scale(0.100000,-0.100000)"
fill="#000000" stroke="none">
<path d="M1275 2775 c-14 -13 -25 -29 -25 -35 0 -20 20 -50 34 -50 12 0 12 -9
-1 -57 -13 -51 -21 -109 -22 -170 -1 -27 -23 -30 -63 -9 -16 8 -28 11 -28 6 0
-14 35 -30 64 -30 22 0 26 -5 27 -27 1 -73 10 -161 20 -196 6 -22 9 -40 7 -41
-47 -22 -63 -38 -66 -65 -2 -19 -10 -32 -23 -36 -10 -4 -19 -11 -19 -16 0 -5
-4 -9 -10 -9 -13 0 -52 -33 -113 -95 -47 -48 -115 -153 -137 -210 -11 -30 -34
-55 -48 -55 -18 0 -52 -67 -54 -103 -1 -20 7 -48 18 -64 15 -23 19 -49 21
-134 3 -224 83 -395 217 -465 51 -26 56 -32 58 -64 1 -19 3 -48 4 -65 4 -72 6
-111 4 -120 -3 -24 1 -243 6 -275 13 -79 84 -120 210 -120 71 0 73 -1 65 -22
-5 -15 -28 -29 -72 -45 -91 -32 -139 -94 -139 -180 l0 -23 414 0 c244 0 417 4
421 9 8 15 -33 116 -59 144 -33 35 -72 53 -146 68 -76 15 -90 23 -90 54 0 13
-5 25 -10 27 -6 2 -12 57 -13 138 -1 74 -5 140 -8 145 -3 6 -7 30 -9 55 -4 68
-6 83 -13 110 -10 37 -19 92 -18 113 0 29 18 45 87 77 35 17 69 36 76 43 7 7
31 25 52 41 74 55 163 163 171 206 1 3 5 28 10 55 4 28 10 57 12 65 12 43 10
293 -3 365 -16 97 -34 167 -45 180 -5 5 -9 15 -9 23 0 8 -13 34 -30 59 -16 24
-30 46 -30 49 0 9 -54 56 -90 78 -35 22 -126 53 -184 63 -17 3 -85 6 -151 7
l-120 1 -17 36 c-9 20 -19 47 -21 60 -2 13 -6 31 -9 39 -21 60 -28 114 -16
121 6 4 15 6 19 3 9 -5 49 44 49 62 0 17 -29 46 -40 39 -5 -3 -11 -1 -15 5 -3
5 -15 10 -26 10 -17 0 -18 6 -15 48 2 26 4 54 5 63 1 9 12 20 25 23 42 10 41
82 -3 105 -32 17 -60 13 -86 -14z m126 -264 c23 -19 24 -19 5 -40 -11 -12 -29
-21 -41 -21 -18 0 -21 6 -23 40 -2 34 0 40 16 40 11 0 30 -9 43 -19z"/>
<path d="M1215 2529 c-12 -6 -27 -20 -34 -32 -14 -22 -14 -22 11 1 13 12 29
22 36 22 6 0 14 5 17 10 8 12 -3 12 -30 -1z"/>
</g>
</svg>
