<?xml version="1.0" standalone="no"?>
<!DOCTYPE svg PUBLIC "-//W3C//DTD SVG 20010904//EN"
 "http://www.w3.org/TR/2001/REC-SVG-20010904/DTD/svg10.dtd">
<svg version="1.0" xmlns="http://www.w3.org/2000/svg"
 width="512.000000pt" height="512.000000pt" viewBox="0 0 512.000000 512.000000"
 preserveAspectRatio="xMidYMid meet">
<metadata>
Created by potrace 1.14, written by Peter Selinger 2001-2017
</metadata>
<g transform="translate(0.000000,512.000000) scale(0.100000,-0.100000)"
fill="#000000" stroke="none">
<path d="M2203 4764 c-13 -6 -20 -14 -16 -17 3 -4 -1 -7 -10 -7 -9 0 -19 -11
-23 -25 -3 -14 -10 -25 -14 -25 -14 0 -4 -51 11 -61 8 -5 10 -9 6 -9 -16 0 22
-30 37 -30 14 0 20 -12 17 -32 -4 -25 -7 -34 -14 -39 -9 -6 -14 -33 -24 -116
-3 -29 -10 -53 -15 -53 -5 0 -6 -4 -3 -10 4 -6 -8 -10 -29 -10 -20 0 -36 -5
-36 -11 0 -6 -6 -9 -13 -6 -8 3 -27 -6 -42 -19 -15 -13 -24 -24 -19 -24 5 0 3
-4 -4 -9 -13 -8 -18 -34 -11 -61 7 -25 69 -59 101 -55 15 2 28 -1 28 -6 0 -6
5 -7 10 -4 11 7 11 8 14 -95 1 -41 5 -81 10 -89 7 -11 6 -12 -5 -6 -11 7 -12
6 -3 -6 6 -8 12 -39 13 -69 2 -30 6 -57 9 -60 4 -3 7 -22 6 -42 0 -21 3 -38 8
-38 5 0 6 -4 3 -10 -3 -5 -1 -10 6 -10 16 0 0 -17 -21 -22 -8 -2 -21 -9 -28
-16 -8 -7 -18 -10 -23 -7 -5 4 -9 2 -9 -4 0 -5 -8 -12 -19 -16 -15 -5 -18 -14
-17 -55 2 -46 0 -52 -26 -64 -19 -10 -26 -11 -22 -3 4 7 -4 1 -18 -13 -34 -33
-78 -70 -78 -64 0 5 -54 -42 -95 -83 -13 -12 -25 -20 -28 -17 -2 3 -7 -6 -11
-20 -4 -18 -11 -24 -23 -19 -11 4 -14 3 -9 -5 4 -7 2 -12 -3 -12 -6 0 -11 -5
-11 -11 0 -7 -11 -22 -25 -35 -14 -13 -25 -28 -25 -34 0 -5 -4 -10 -10 -10 -5
0 -10 -7 -10 -15 0 -8 -5 -15 -11 -15 -5 0 -7 -4 -4 -10 3 -5 1 -10 -4 -10 -6
0 -11 -7 -11 -15 0 -8 -3 -15 -8 -15 -8 0 -47 -81 -44 -92 1 -5 -2 -8 -7 -8
-5 0 -13 -14 -16 -32 -4 -17 -14 -38 -22 -46 -8 -8 -12 -21 -9 -28 3 -9 -2
-14 -14 -14 -11 0 -20 -5 -20 -10 0 -6 -8 -14 -17 -17 -39 -15 -103 -97 -103
-133 0 -11 -6 -20 -12 -20 -10 0 -10 -2 0 -9 8 -4 13 -17 12 -27 -5 -47 1 -82
19 -101 11 -12 17 -24 13 -29 -4 -4 1 -4 11 -1 11 4 16 3 12 -3 -3 -6 -2 -10
4 -10 12 0 12 -68 0 -92 -6 -11 -5 -18 4 -21 9 -3 9 -7 -1 -19 -9 -11 -9 -17
-2 -20 8 -2 8 -11 1 -31 -8 -20 -7 -27 2 -27 8 0 7 -4 -3 -10 -9 -6 -10 -10
-3 -10 14 0 13 -40 -2 -40 -6 0 -5 -3 1 -8 7 -4 14 -36 18 -72 3 -36 6 -81 8
-100 2 -19 7 -38 12 -42 5 -3 10 -15 11 -25 3 -36 17 -83 24 -83 4 0 7 -10 8
-22 1 -11 6 -24 11 -27 5 -3 8 -14 6 -24 -1 -9 1 -15 6 -12 4 3 13 -10 20 -28
7 -17 22 -42 33 -55 11 -12 17 -22 14 -22 -14 0 136 -163 155 -169 4 -2 17 -5
28 -8 11 -3 20 -9 20 -14 0 -5 9 -9 20 -9 11 0 20 -5 20 -11 0 -5 4 -8 9 -4 6
3 14 -2 19 -11 5 -9 13 -15 18 -15 5 1 10 -21 12 -49 2 -27 8 -50 14 -50 6 0
5 -7 -3 -17 -11 -13 -11 -17 -1 -20 6 -3 12 -9 12 -14 0 -6 -6 -7 -12 -3 -10
6 -10 4 0 -7 16 -17 16 -32 0 -23 -10 6 -10 4 0 -7 16 -17 16 -42 0 -33 -10 6
-10 4 0 -7 17 -18 17 -103 0 -93 -10 6 -10 4 0 -7 6 -7 12 -19 12 -27 0 -8 -5
-10 -12 -6 -10 6 -10 4 -2 -7 16 -21 18 -82 2 -73 -10 6 -11 4 0 -7 16 -17 16
-43 0 -33 -10 6 -10 4 -2 -7 16 -21 18 -82 2 -73 -10 6 -11 4 0 -7 16 -17 16
-43 0 -33 -10 6 -10 4 -2 -7 16 -21 18 -82 2 -73 -10 6 -10 5 -1 -7 7 -9 13
-52 14 -102 1 -48 6 -87 11 -87 5 0 6 -5 3 -10 -3 -5 -1 -10 5 -10 6 0 8 -5 5
-10 -3 -6 1 -13 9 -16 8 -3 18 -15 22 -26 3 -11 12 -17 19 -14 8 3 12 0 9 -7
-4 -13 48 -47 72 -47 8 0 14 -3 14 -7 0 -11 60 -17 192 -17 l117 -1 -3 -31
c-4 -42 -11 -51 -46 -59 -17 -4 -28 -10 -26 -14 3 -4 -8 -7 -24 -6 -17 1 -30
-2 -30 -7 0 -4 -8 -8 -17 -8 -17 -1 -135 -59 -121 -60 4 0 -4 -11 -17 -25 -14
-13 -25 -31 -25 -40 0 -9 -4 -13 -10 -10 -5 3 -11 0 -12 -7 0 -7 -2 -17 -2
-23 -1 -5 -5 -16 -9 -23 -5 -6 -6 -16 -2 -21 3 -5 1 -12 -5 -16 -5 -3 -10 -31
-10 -61 l0 -54 714 0 714 0 -9 42 c-6 23 -12 45 -14 49 -3 4 1 10 7 12 8 3 5
6 -6 6 -12 1 -16 6 -13 16 4 8 2 17 -3 20 -6 4 -10 13 -10 22 0 9 -8 22 -17
30 -12 10 -13 12 -3 8 10 -4 9 -2 -2 8 -10 8 -18 17 -18 21 0 3 -16 23 -35 43
-19 20 -35 33 -35 29 0 -5 -9 1 -20 14 -11 13 -20 20 -20 16 0 -3 -13 0 -30 9
-16 9 -30 13 -30 9 0 -4 -8 0 -17 7 -9 8 -14 9 -11 4 4 -6 -2 -11 -12 -11 -12
0 -16 4 -10 11 6 7 -2 11 -23 12 -18 0 -51 4 -75 8 -24 4 -49 8 -55 9 -24 4
-42 22 -44 44 -6 68 -7 72 -30 72 -25 0 -31 15 -10 23 8 4 8 6 1 6 -8 1 -10
12 -5 34 8 43 7 170 -3 185 -4 7 -2 12 5 12 10 0 10 3 1 12 -15 15 -16 31 0
22 7 -4 8 -3 4 5 -4 6 -10 53 -13 104 -2 51 -9 97 -14 104 -7 7 -6 14 1 18 7
4 8 11 2 18 -9 12 -24 117 -25 185 -1 17 -5 32 -10 32 -5 0 -7 7 -4 15 4 8 2
17 -2 19 -5 3 -7 17 -6 31 2 14 -2 25 -8 25 -7 0 -5 5 3 10 10 6 11 10 3 10
-8 0 -13 14 -13 35 0 19 -4 35 -8 35 -4 0 -8 9 -9 20 -1 11 2 18 7 15 7 -5 25
41 22 57 -1 4 5 5 13 2 8 -4 17 1 21 10 3 9 14 16 23 16 10 0 21 3 25 7 4 5
11 8 14 8 7 1 62 30 97 52 11 7 37 21 57 31 21 10 35 22 31 25 -3 4 -2 7 3 7
6 0 20 9 32 20 12 12 22 17 22 13 0 -4 7 3 16 15 8 12 22 22 30 22 8 0 12 5 9
10 -3 6 2 13 11 17 20 8 127 112 161 157 12 16 20 33 17 37 -3 5 1 9 9 9 9 0
17 14 21 34 4 19 13 39 20 45 8 7 12 21 9 31 -3 11 0 20 5 20 7 0 10 15 8 36
-1 19 1 37 6 40 4 3 8 25 8 49 0 24 4 45 10 47 5 2 10 37 11 78 1 41 6 81 12
88 8 10 7 16 -2 22 -9 5 -10 13 -5 21 11 18 13 199 2 199 -5 0 -4 9 2 20 8 15
8 20 -1 20 -8 0 -7 5 2 17 10 11 10 14 2 9 -10 -5 -13 10 -13 63 0 46 -4 71
-11 71 -8 0 -7 6 2 17 10 11 10 14 2 9 -10 -5 -13 3 -13 32 0 21 -3 42 -7 46
-4 4 -8 21 -9 39 -1 18 -3 32 -4 32 -1 0 -4 13 -6 30 -3 16 -9 32 -13 35 -5 3
-12 24 -16 48 -4 23 -11 42 -16 42 -5 0 -9 8 -9 18 0 10 -3 22 -7 26 -4 3 -8
13 -9 21 -1 8 -11 27 -23 43 -11 16 -18 32 -14 36 3 3 1 6 -5 6 -7 0 -12 7
-12 16 0 8 -4 13 -9 10 -5 -3 -12 2 -15 12 -9 24 -36 69 -36 59 0 -4 -6 -2
-14 5 -8 7 -12 16 -10 19 1 3 -10 13 -27 23 -16 9 -29 21 -29 25 0 5 -11 12
-25 15 -14 4 -23 11 -20 16 3 6 -2 10 -12 10 -11 0 -24 5 -31 12 -7 7 -12 9
-12 4 0 -4 -7 0 -16 9 -10 9 -25 14 -36 12 -10 -3 -16 -1 -12 4 3 5 -6 9 -20
9 -14 0 -27 4 -30 9 -3 4 -17 7 -31 6 -15 -2 -25 2 -25 10 0 7 -10 11 -22 11
-13 -1 -31 2 -40 6 -12 6 -18 5 -18 -4 0 -9 -3 -9 -12 0 -7 7 -35 12 -62 12
-30 0 -46 4 -38 8 7 5 -26 9 -74 11 -59 1 -91 -2 -102 -11 -12 -10 -14 -10 -8
0 4 7 2 12 -8 12 -8 0 -18 -4 -21 -10 -3 -5 -20 -10 -36 -10 -20 0 -28 4 -23
12 5 7 3 8 -7 2 -40 -25 -109 -3 -109 36 0 9 -4 20 -9 25 -11 13 -31 97 -25
107 3 4 0 8 -5 8 -6 0 -11 11 -11 25 0 14 -4 25 -8 25 -4 0 -9 14 -10 31 -1
18 -6 37 -9 43 -4 6 -8 20 -8 31 0 11 -3 25 -7 30 -3 6 -8 24 -9 40 -4 28 -1
31 41 41 27 6 39 13 30 17 -13 5 -3 9 17 6 3 -1 16 16 29 36 18 31 20 41 11
59 -14 24 -34 47 -42 46 -3 0 -22 7 -42 15 -20 9 -47 16 -60 17 -13 2 -23 8
-23 16 0 8 5 10 13 6 9 -6 9 -5 0 7 -10 12 -10 18 0 29 7 8 8 10 1 7 -15 -8
-17 70 -3 79 6 3 5 12 -3 22 -10 12 -10 14 0 8 8 -5 12 1 12 18 0 20 5 26 20
26 22 0 62 32 66 53 1 6 5 20 9 30 4 9 3 17 -3 17 -5 0 -8 11 -7 24 3 23 -40
74 -57 68 -5 -1 -8 1 -8 6 0 12 -82 9 -107 -4z m117 -450 c30 -1 70 -16 70
-27 0 -6 3 -8 6 -4 9 9 34 -19 34 -38 0 -9 -4 -13 -10 -10 -5 3 -10 -2 -10
-11 0 -10 -3 -15 -6 -11 -3 3 -14 -3 -25 -14 -13 -13 -31 -19 -54 -17 l-35 2
0 64 c0 48 -3 61 -12 56 -9 -5 -8 -2 1 10 8 9 17 13 20 9 3 -5 13 -9 21 -9z
m-170 -5 c4 -6 5 -113 1 -141 -1 -4 -20 -6 -42 -6 -27 0 -37 3 -28 9 10 6 6 9
-14 9 -33 0 -57 20 -57 49 0 20 56 71 78 71 7 0 12 4 12 8 0 10 43 11 50 1z"/>
</g>
</svg>
